<?xml version="1.0" encoding="UTF-8" standalone="no"?>
<!-- Created with Inkscape (http://www.inkscape.org/) -->

<svg
   xmlns:dc="http://purl.org/dc/elements/1.1/"
   xmlns:cc="http://creativecommons.org/ns#"
   xmlns:rdf="http://www.w3.org/1999/02/22-rdf-syntax-ns#"
   xmlns:svg="http://www.w3.org/2000/svg"
   xmlns="http://www.w3.org/2000/svg"
   xmlns:sodipodi="http://sodipodi.sourceforge.net/DTD/sodipodi-0.dtd"
   xmlns:inkscape="http://www.inkscape.org/namespaces/inkscape"
   width="1024"
   height="1024"
   viewBox="0 0 1024 1024"
   version="1.1"
   id="svg8"
   inkscape:version="0.92.1 r15371"
   sodipodi:docname="arrow_left.svg">
  <defs
     id="defs2" />
  <sodipodi:namedview
     id="base"
     pagecolor="#ffffff"
     bordercolor="#666666"
     borderopacity="1.0"
     inkscape:pageopacity="0.0"
     inkscape:pageshadow="2"
     inkscape:zoom="0.7"
     inkscape:cx="615.58209"
     inkscape:cy="299.3479"
     inkscape:document-units="px"
     inkscape:current-layer="layer1"
     showgrid="true"
     inkscape:pagecheckerboard="true"
     fit-margin-bottom="0.1"
     units="px"
     borderlayer="false"
     inkscape:showpageshadow="true"
     inkscape:snap-grids="true"
     inkscape:object-nodes="true"
     inkscape:snap-page="true"
     inkscape:snap-smooth-nodes="true"
     inkscape:window-width="1920"
     inkscape:window-height="1053"
     inkscape:window-x="0"
     inkscape:window-y="27"
     inkscape:window-maximized="0">
    <inkscape:grid
       type="xygrid"
       id="grid8417"
       empspacing="4"
       dotted="false"
       spacingx="4"
       spacingy="4"
       enabled="true" />
  </sodipodi:namedview>
  <metadata
     id="metadata5">
    <rdf:RDF>
      <cc:Work
         rdf:about="">
        <dc:format>image/svg+xml</dc:format>
        <dc:type
           rdf:resource="http://purl.org/dc/dcmitype/StillImage" />
        <dc:title></dc:title>
      </cc:Work>
    </rdf:RDF>
  </metadata>
  <g
     inkscape:label="Layer 1"
     inkscape:groupmode="layer"
     id="layer1"
     transform="translate(0,-26.06671)">
    <path
       style="fill:#ffffff;fill-opacity:1;stroke:#484a58;stroke-width:0.24397111;stroke-linecap:round;stroke-linejoin:round;stroke-miterlimit:4;stroke-dasharray:none;stroke-opacity:1"
       d="m 474.56247,204.35824 c 37.56775,37.56774 37.56774,98.0553 0,135.62304 -106.5625,102.08543 -106.5625,102.08543 25.76172,102.29981 l 128.0918,-0.0303 128.09179,-0.0303 128.0918,-0.0303 c 53.11642,-0.0125 95.87695,42.76053 95.87695,95.87695 0,53.11642 -42.76053,95.86635 -95.87695,95.87891 l -128.03076,0.0303 -128.03077,0.0303 -128.03076,0.0303 c -132.50732,0.0298 -132.50732,0.0298 -25.94482,102.11624 37.56775,37.56775 37.56776,98.05528 0,135.62304 -37.56774,37.56774 -98.0553,37.56775 -135.62305,0 0,0 -134.08789,-134.83788 -226.27539,-226.27343 -92.187458,-91.43555 -92.187458,-123.43555 0,-214.8711 92.1875,-91.43558 226.27539,-226.27346 226.27539,-226.27346 40.65896,-36.94297 100.65863,-33.91539 135.62305,0 z"
       id="rect12969"
       inkscape:connector-curvature="0"
       sodipodi:nodetypes="cccccsssccccsczzcc" />
  </g>
</svg>
