<?xml version="1.0" encoding="UTF-8" standalone="no"?>
<!-- Created with Inkscape (http://www.inkscape.org/) -->

<svg
   xmlns:dc="http://purl.org/dc/elements/1.1/"
   xmlns:cc="http://creativecommons.org/ns#"
   xmlns:rdf="http://www.w3.org/1999/02/22-rdf-syntax-ns#"
   xmlns:svg="http://www.w3.org/2000/svg"
   xmlns="http://www.w3.org/2000/svg"
   xmlns:sodipodi="http://sodipodi.sourceforge.net/DTD/sodipodi-0.dtd"
   xmlns:inkscape="http://www.inkscape.org/namespaces/inkscape"
   width="1024"
   height="1024"
   viewBox="0 0 1024 1024"
   version="1.1"
   id="svg8"
   sodipodi:docname="chat_2.svg"
   inkscape:version="0.92.1 r15371">
  <defs
     id="defs2" />
  <sodipodi:namedview
     id="base"
     pagecolor="#ffffff"
     bordercolor="#666666"
     borderopacity="1.0"
     inkscape:pageopacity="0.0"
     inkscape:pageshadow="2"
     inkscape:zoom="0.70710678"
     inkscape:cx="305.62961"
     inkscape:cy="431.04329"
     inkscape:document-units="px"
     inkscape:current-layer="layer1"
     showgrid="true"
     inkscape:pagecheckerboard="true"
     fit-margin-bottom="0.1"
     units="px"
     borderlayer="false"
     inkscape:showpageshadow="true"
     inkscape:snap-grids="true"
     inkscape:object-nodes="true"
     inkscape:snap-page="true"
     inkscape:snap-smooth-nodes="true"
     inkscape:window-width="1920"
     inkscape:window-height="1053"
     inkscape:window-x="0"
     inkscape:window-y="27"
     inkscape:window-maximized="0"
     showguides="true">
    <inkscape:grid
       type="xygrid"
       id="grid8417"
       empspacing="4"
       dotted="false"
       spacingx="4"
       spacingy="4"
       enabled="false"
       visible="true" />
  </sodipodi:namedview>
  <metadata
     id="metadata5">
    <rdf:RDF>
      <cc:Work
         rdf:about="">
        <dc:format>image/svg+xml</dc:format>
        <dc:type
           rdf:resource="http://purl.org/dc/dcmitype/StillImage" />
        <dc:title></dc:title>
      </cc:Work>
    </rdf:RDF>
  </metadata>
  <g
     inkscape:label="Layer 1"
     inkscape:groupmode="layer"
     id="layer1"
     transform="translate(0,-26.06671)">
    <path
       style="fill:#ffffff;fill-opacity:1;stroke:#484a58;stroke-width:0.21710937;stroke-linecap:round;stroke-linejoin:round;stroke-miterlimit:4;stroke-dasharray:none;stroke-opacity:1"
       d="m 512,34.285156 c -127.30403,0 -249.39402,40.637715 -339.4115,112.973294 C 82.57102,219.59403 31.999817,317.70211 32,420 32.03581,574.48482 146.77454,714.0502 323.59375,774.6875 l 0.57791,102.62347 c 0,0 298.24449,-51.98756 436.4299,-127.78949 C 898.78697,673.71955 991.81306,554.7844 992,420 992.00018,317.70211 941.42898,219.59403 851.4115,147.25845 761.39402,74.922871 639.30403,34.285156 512,34.285156 Z M 303.87891,212.12109 H 720.12109 C 773.23751,212.12109 816,254.88358 816,308 c 0,53.11642 -42.76249,95.87891 -95.87891,95.87891 H 303.87891 C 250.76249,403.87891 208,361.11642 208,308 c 0,-53.11642 42.76249,-95.87891 95.87891,-95.87891 z m 0,232 H 720.12109 C 773.23751,444.12109 816,486.88358 816,540 c 0,53.11642 -42.76249,95.87891 -95.87891,95.87891 H 303.87891 C 250.76249,635.87891 208,593.11642 208,540 c 0,-53.11642 42.76249,-95.87891 95.87891,-95.87891 z"
       transform="translate(0,26.06671)"
       id="rect12969"
       inkscape:connector-curvature="0"
       sodipodi:nodetypes="ssccczcssssssssssssssss" />
  </g>
</svg>
