<?xml version="1.0" encoding="UTF-8" standalone="no"?>
<!-- Created with Inkscape (http://www.inkscape.org/) -->

<svg
   xmlns:dc="http://purl.org/dc/elements/1.1/"
   xmlns:cc="http://creativecommons.org/ns#"
   xmlns:rdf="http://www.w3.org/1999/02/22-rdf-syntax-ns#"
   xmlns:svg="http://www.w3.org/2000/svg"
   xmlns="http://www.w3.org/2000/svg"
   xmlns:sodipodi="http://sodipodi.sourceforge.net/DTD/sodipodi-0.dtd"
   xmlns:inkscape="http://www.inkscape.org/namespaces/inkscape"
   width="1024"
   height="1024"
   viewBox="0 0 1024 1024"
   version="1.1"
   id="svg8"
   sodipodi:docname="chat.svg"
   inkscape:version="0.92.1 r15371">
  <defs
     id="defs2" />
  <sodipodi:namedview
     id="base"
     pagecolor="#ffffff"
     bordercolor="#666666"
     borderopacity="1.0"
     inkscape:pageopacity="0.0"
     inkscape:pageshadow="2"
     inkscape:zoom="0.5"
     inkscape:cx="9.7584253"
     inkscape:cy="591.46064"
     inkscape:document-units="px"
     inkscape:current-layer="layer1"
     showgrid="true"
     inkscape:pagecheckerboard="true"
     fit-margin-bottom="0.1"
     units="px"
     borderlayer="false"
     inkscape:showpageshadow="true"
     inkscape:snap-grids="false"
     inkscape:object-nodes="true"
     inkscape:snap-page="false"
     inkscape:snap-smooth-nodes="true"
     inkscape:window-width="1920"
     inkscape:window-height="1053"
     inkscape:window-x="0"
     inkscape:window-y="27"
     inkscape:window-maximized="0"
     showguides="true"
     inkscape:snap-to-guides="false">
    <inkscape:grid
       type="xygrid"
       id="grid8417"
       empspacing="4"
       dotted="false"
       spacingx="4"
       spacingy="4"
       enabled="false"
       visible="true" />
  </sodipodi:namedview>
  <metadata
     id="metadata5">
    <rdf:RDF>
      <cc:Work
         rdf:about="">
        <dc:format>image/svg+xml</dc:format>
        <dc:type
           rdf:resource="http://purl.org/dc/dcmitype/StillImage" />
        <dc:title></dc:title>
      </cc:Work>
    </rdf:RDF>
  </metadata>
  <g
     inkscape:label="Layer 1"
     inkscape:groupmode="layer"
     id="layer1"
     transform="translate(0,-26.06671)">
    <path
       style="fill:#ffffff;fill-opacity:1;stroke:#484a58;stroke-width:0.21710937;stroke-linecap:round;stroke-linejoin:round;stroke-miterlimit:4;stroke-dasharray:none;stroke-opacity:1"
       d="m 512,73.324997 c -127.30403,0 -249.39463,40.637083 -339.41211,112.972653 C 82.570412,258.63323 31.999817,356.74195 32,459.03984 c 3.412981,145.95958 132.63558,281.10414 240.34375,333.7832 108.79003,65.15056 14.98316,94.1946 30.32227,158.08203 15.33911,63.88743 85.65827,60.69593 131.35742,33.62305 L 792.14258,772.37187 c 2.85049,-1.68867 5.58259,-3.49877 8.1914,-5.42187 C 920.84356,694.18987 991.82023,580.16632 992,459.03984 992.00018,356.74195 941.42959,258.63323 851.41211,186.29765 761.39463,113.96208 639.30403,73.324997 512,73.324997 Z M 296.8457,281.52422 h 430.3086 c 42.48855,0 76.69531,34.20677 76.69531,76.69531 0,42.48855 -34.20676,76.69336 -76.69531,76.69336 H 296.8457 c -42.48855,0 -76.69531,-34.20481 -76.69531,-76.69336 0,-42.48854 34.20676,-76.69531 76.69531,-76.69531 z m 0,216.25195 h 430.3086 c 42.48855,0 76.69531,34.20482 76.69531,76.69336 0,42.48855 -34.20676,76.69531 -76.69531,76.69531 H 296.8457 c -42.48855,0 -76.69531,-34.20676 -76.69531,-76.69531 0,-42.48854 34.20676,-76.69336 76.69531,-76.69336 z"
       id="rect12969"
       inkscape:connector-curvature="0"
       sodipodi:nodetypes="ssccsccccssssssssssssssss" />
  </g>
</svg>
