<?xml version="1.0" encoding="UTF-8" standalone="no"?>
<svg
   xmlns:dc="http://purl.org/dc/elements/1.1/"
   xmlns:cc="http://creativecommons.org/ns#"
   xmlns:rdf="http://www.w3.org/1999/02/22-rdf-syntax-ns#"
   xmlns:svg="http://www.w3.org/2000/svg"
   xmlns="http://www.w3.org/2000/svg"
   id="svg6"
   version="1.1"
   viewBox="0 0 24 24"
   role="img">
  <metadata
     id="metadata12">
    <rdf:RDF>
      <cc:Work
         rdf:about="">
        <dc:format>image/svg+xml</dc:format>
        <dc:type
           rdf:resource="http://purl.org/dc/dcmitype/StillImage" />
        <dc:title>Godot Engine icon</dc:title>
      </cc:Work>
    </rdf:RDF>
  </metadata>
  <defs
     id="defs10">
    <clipPath
       id="a">
      <path
         d="M 0,595.276 H 841.89 V 0 H 0 Z"
         id="path4554" />
    </clipPath>
  </defs>
  <title
     id="title2">Godot Engine icon</title>
  <g
     transform="matrix(0.07137917,0,0,0.07137917,42.272813,16.603839)"
     id="g4613">
    <path
       id="path4563"
       d="m -458.30708,-223.02111 c -15.358,3.4143 -30.551,8.1666 -44.795,15.336 0.32575,12.577 1.1388,24.628 2.7871,36.869 -5.5316,3.544 -11.345,6.5857 -16.512,10.734 -5.2496,4.0386 -10.612,7.9037 -15.365,12.627 -9.4963,-6.2811 -19.546,-12.184 -29.9,-17.395 -11.161,12.012 -21.598,24.977 -30.123,39.484 6.4138,10.376 13.11,20.101 20.34,29.33 h 0.20117 v 89.039 c 0.16287,0.001 0.32692,0.009 0.48828,0.0234 l 54.586,5.2617 c 2.8593,0.27598 5.0998,2.578 5.2988,5.4434 l 1.6836,24.096 47.615,3.3984 3.2793,-22.24 c 0.42526,-2.8834 2.8998,-5.0195 5.8164,-5.0195 h 57.59 c 2.9151,0 5.3892,2.1361 5.8144,5.0195 l 3.2793,22.24 47.617,-3.3984 1.6816,-24.096 c 0.20057,-2.8653 2.4395,-5.1659 5.2988,-5.4434 l 54.564,-5.2617 c 0.16136,-0.0151 0.32346,-0.0218 0.48632,-0.0234 v -7.1055 l 0.0234,-0.008 v -81.926 h 0.20117 c 7.2312,-9.2294 13.923,-18.955 20.34,-29.33 -8.5221,-14.508 -18.964,-27.473 -30.125,-39.484 -10.351,5.2104 -20.406,11.113 -29.902,17.395 -4.7519,-4.7233 -10.104,-8.5883 -15.361,-12.627 -5.1652,-4.1487 -10.987,-7.1904 -16.508,-10.734 1.6438,-12.241 2.4579,-24.292 2.7852,-36.869 -14.245,-7.1694 -29.437,-11.922 -44.803,-15.336 -6.1348,10.311 -11.745,21.475 -16.631,32.391 -5.794,-0.96819 -11.615,-1.3271 -17.443,-1.3965 v -0.008 c -0.0407,0 -0.0786,0.008 -0.11328,0.008 -0.0361,0 -0.0751,-0.008 -0.11133,-0.008 v 0.008 c -5.8393,0.0693 -11.656,0.4283 -17.451,1.3965 -4.8831,-10.915 -10.489,-22.08 -16.633,-32.391 z m -113.46,227.8 c 0.0227,5.2752 0.0898,11.054 0.0898,12.205 0,51.838 65.76,76.754 147.46,77.041 h 0.20117 c 81.701,-0.28654 147.44,-25.203 147.44,-77.041 0,-1.1718 0.0716,-6.9268 0.0957,-12.205 l -49.064,4.7324 -1.6914,24.225 c -0.20359,2.9196 -2.5257,5.2435 -5.4453,5.4531 l -58.145,4.1484 c -0.14176,0.0107 -0.28357,0.0156 -0.42382,0.0156 -2.8895,0 -5.3818,-2.1219 -5.8086,-5.0234 l -3.334,-22.611 h -47.443 l -3.334,22.611 c -0.4479,3.0433 -3.168,5.2325 -6.2324,5.0078 l -58.145,-4.1484 c -2.9196,-0.20961 -5.2417,-2.5335 -5.4453,-5.4531 l -1.6895,-24.225 -49.084,-4.7324 z"
       style="fill:#478cbf" />
    <path
       id="path4565"
       d="m -501.49408,-92.77111 c -18.16,0 -32.891,14.716 -32.891,32.879 0,18.175 14.73,32.898 32.891,32.898 18.169,0 32.896,-14.723 32.896,-32.898 0,-18.163 -14.727,-32.879 -32.896,-32.879 z m 154.76,0 c -18.172,0 -32.898,14.716 -32.898,32.879 0,18.175 14.726,32.898 32.898,32.898 18.159,0 32.887,-14.723 32.887,-32.898 0,-18.163 -14.728,-32.879 -32.887,-32.879 z m -77.387,19.24 c -5.8483,0 -10.588,4.3146 -10.588,9.623 v 30.283 c 0,5.3129 4.7396,9.623 10.588,9.623 5.8484,0 10.6,-4.3101 10.6,-9.623 v -30.283 c 0,-5.3084 -4.7513,-9.623 -10.6,-9.623 z"
       style="fill:#ffffff" />
    <path
       id="path4567"
       d="m -498.34708,-79.77111 c -12.059,0 -21.834,9.7804 -21.834,21.836 0,12.0556 9.7754,21.826 21.834,21.826 12.065,0 21.836,-9.7706 21.836,-21.826 0,-12.0554 -9.7714,-21.836 -21.836,-21.836 z m 148.46,0 c -12.056,0 -21.824,9.7804 -21.824,21.836 0,12.0556 9.7687,21.826 21.824,21.826 12.068,0 21.834,-9.7706 21.834,-21.826 0,-12.0554 -9.7664,-21.836 -21.834,-21.836 z"
       style="fill:#414042" />
  </g>
</svg>
